#N canvas 620 185 920 706 16;
#X floatatom 547 199 0 0 0 0 - - -;
#X obj 547 173 netsend -u;
#X floatatom 564 109 0 0 0 0 - - -;
#X text 622 25 UDP \, ascii;
#X obj 644 201 print backward;
#X msg 547 49 connect localhost 3333;
#X msg 564 136 send gate \$1;
#X obj 564 84 bng 15 250 50 0 empty empty empty 17 7 0 10 -262144 -1
-1;
#X floatatom 20 52 7 500 10000 2 - init_time base, f 7;
#X text 11 97 fractions;
#X obj 19 146 r base;
#X obj 120 146 r base;
#X text 14 121 1/2;
#X obj 237 148 r base;
#X obj 338 148 r base;
#X text 237 119 8/9;
#X text 338 120 4/7;
#X floatatom 19 202 5 0 0 0 - - -, f 5;
#X floatatom 120 202 5 0 0 0 - - -, f 5;
#X floatatom 237 204 5 0 0 0 - - -, f 5;
#X floatatom 338 204 5 0 0 0 - - -, f 5;
#X obj 28 279 metro;
#X obj 112 278 metro;
#X obj 207 278 metro;
#X obj 291 278 metro;
#X obj 160 51 tgl 25 0 start start_me start -60 12 0 10 -262144 -1
-1 1 1;
#X obj 28 246 r start;
#X obj 112 245 r start;
#X obj 207 244 r start;
#X obj 291 244 r start;
#X obj 28 531 bng 15 250 50 0 empty empty empty 17 7 0 10 -262144 -1
-1;
#X obj 114 530 bng 15 250 50 0 empty empty empty 17 7 0 10 -262144
-1 -1;
#X obj 207 531 bng 15 250 50 0 empty empty empty 17 7 0 10 -262144
-1 -1;
#X obj 292 531 bng 15 250 50 0 empty empty empty 17 7 0 10 -262144
-1 -1;
#X text 124 119 2/5;
#X msg 28 551 1;
#X msg 114 550 4;
#X msg 206 554 3;
#X msg 292 551 4;
#X obj 121 436 lister;
#X msg 121 464 set \$1;
#X obj 213 436 lister;
#X msg 213 464 set \$1;
#X obj 305 436 lister;
#X msg 305 464 set \$1;
#X obj 397 436 lister;
#X msg 397 464 set \$1;
#X obj 28 348 del;
#X obj 113 349 del;
#X obj 208 349 del;
#X obj 292 349 del;
#X text 330 346 delay to avoid;
#X text 331 364 unisons;
#X obj 234 314 * 0.3;
#X obj 138 313 * 0.2;
#X text 13 26 base pulse in ms;
#N canvas 277 222 653 293 init 0;
#X msg 121 106 set 2;
#X msg 206 113 set 3;
#X msg 274 114 set 4;
#X obj 31 200 send add1;
#X obj 310 199 send add4;
#X obj 218 199 send add3;
#X obj 125 199 send add2;
#X msg 34 105 set 1;
#X obj 99 15 loadbang;
#X obj 363 27 loadbang;
#X obj 562 133 s init_time;
#X obj 465 104 del 1000;
#X obj 465 133 s connect;
#X obj 367 105 del 3000;
#X obj 367 134 s start_me;
#X msg 566 88 6500;
#X connect 0 0 6 0;
#X connect 1 0 5 0;
#X connect 2 0 4 0;
#X connect 7 0 3 0;
#X connect 8 0 7 0;
#X connect 8 0 0 0;
#X connect 8 0 1 0;
#X connect 8 0 2 0;
#X connect 9 0 15 0;
#X connect 9 0 11 0;
#X connect 9 0 13 0;
#X connect 11 0 12 0;
#X connect 13 0 14 0;
#X connect 15 0 10 0;
#X restore 212 52 pd init;
#X obj 57 502 r add1;
#X obj 151 501 r add2;
#X obj 244 501 r add3;
#X obj 341 501 r add4;
#X obj 46 655 s gate_me;
#X obj 783 49 r gate_me;
#X msg 431 48 disconnect;
#X obj 783 78 - 1;
#X obj 346 403 counter 2;
#X obj 29 404 counter 5;
#X obj 144 404 counter 3;
#X obj 243 403 counter 3;
#X obj 547 3 r connect;
#N canvas 931 312 735 557 sound 0;
#X obj 28 347 dac~;
#X obj 445 131 noise~;
#X obj 445 216 *~;
#X obj 583 178 pack 0 50;
#X obj 583 223 line~;
#X obj 585 70 inlet;
#X obj 680 61 bng 15 250 50 0 empty empty empty 17 7 0 10 -262144 -1
-1;
#X msg 582 135 0.3;
#X msg 640 135 0;
#X obj 680 92 del 100;
#X msg 348 58 \; pd dsp 1;
#X obj 348 19 loadbang;
#X obj 24 180 osc~ 200;
#X obj 110 181 osc~ 500;
#X obj 285 183 osc~ 350;
#X obj 199 182 osc~ 225;
#X obj 25 266 *~;
#X obj 111 267 *~;
#X obj 200 268 *~;
#X obj 286 269 *~;
#N canvas 2 107 450 300 env 0;
#X obj 99 127 pack 0 50;
#X obj 99 172 line~;
#X msg 98 84 0.3;
#X msg 156 84 0;
#X obj 196 41 del 100;
#X obj 104 23 inlet;
#X obj 99 201 outlet~;
#X connect 0 0 1 0;
#X connect 1 0 6 0;
#X connect 2 0 0 0;
#X connect 3 0 0 0;
#X connect 4 0 3 0;
#X connect 5 0 4 0;
#X connect 5 0 2 0;
#X restore 48 216 pd env;
#N canvas 2 101 450 300 env 0;
#X obj 99 127 pack 0 50;
#X obj 99 172 line~;
#X msg 98 84 0.3;
#X msg 156 84 0;
#X obj 196 41 del 100;
#X obj 104 23 inlet;
#X obj 99 201 outlet~;
#X connect 0 0 1 0;
#X connect 1 0 6 0;
#X connect 2 0 0 0;
#X connect 3 0 0 0;
#X connect 4 0 3 0;
#X connect 5 0 4 0;
#X connect 5 0 2 0;
#X restore 137 220 pd env;
#N canvas 2 95 450 300 env 0;
#X obj 99 127 pack 0 50;
#X obj 99 172 line~;
#X msg 98 84 0.3;
#X msg 156 84 0;
#X obj 196 41 del 100;
#X obj 104 23 inlet;
#X obj 99 201 outlet~;
#X connect 0 0 1 0;
#X connect 1 0 6 0;
#X connect 2 0 0 0;
#X connect 3 0 0 0;
#X connect 4 0 3 0;
#X connect 5 0 4 0;
#X connect 5 0 2 0;
#X restore 227 221 pd env;
#N canvas 2 95 450 300 env 0;
#X obj 99 127 pack 0 50;
#X obj 99 172 line~;
#X msg 98 84 0.3;
#X msg 156 84 0;
#X obj 196 41 del 100;
#X obj 104 23 inlet;
#X obj 99 201 outlet~;
#X connect 0 0 1 0;
#X connect 1 0 6 0;
#X connect 2 0 0 0;
#X connect 3 0 0 0;
#X connect 4 0 3 0;
#X connect 5 0 4 0;
#X connect 5 0 2 0;
#X restore 311 223 pd env;
#X obj 155 17 inlet;
#X obj 155 46 route 1 2 3 4;
#X obj 165 105 bng 15 250 50 0 empty empty empty 17 7 0 10 -262144
-1 -1;
#X obj 222 104 bng 15 250 50 0 empty empty empty 17 7 0 10 -262144
-1 -1;
#X obj 257 98 bng 15 250 50 0 empty empty empty 17 7 0 10 -262144 -1
-1;
#X obj 310 99 bng 15 250 50 0 empty empty empty 17 7 0 10 -262144 -1
-1;
#X connect 1 0 2 0;
#X connect 3 0 4 0;
#X connect 4 0 2 1;
#X connect 5 0 7 0;
#X connect 5 0 9 0;
#X connect 6 0 7 0;
#X connect 6 0 9 0;
#X connect 7 0 3 0;
#X connect 8 0 3 0;
#X connect 9 0 8 0;
#X connect 11 0 10 0;
#X connect 12 0 16 0;
#X connect 13 0 17 0;
#X connect 14 0 19 0;
#X connect 15 0 18 0;
#X connect 16 0 0 0;
#X connect 17 0 0 0;
#X connect 18 0 0 0;
#X connect 19 0 0 0;
#X connect 20 0 16 1;
#X connect 21 0 17 1;
#X connect 22 0 18 1;
#X connect 23 0 19 1;
#X connect 24 0 25 0;
#X connect 25 0 26 0;
#X connect 25 0 20 0;
#X connect 25 1 27 0;
#X connect 25 1 21 0;
#X connect 25 2 28 0;
#X connect 25 2 22 0;
#X connect 25 3 29 0;
#X connect 25 3 23 0;
#X restore 171 656 pd sound;
#X obj 120 174 * 2.5;
#X obj 237 176 * 1.125;
#X obj 338 176 * 1.75;
#X obj 54 313 * 0.1;
#X obj 318 314 * 0.4;
#X obj 19 174 * 1;
#X connect 1 0 0 0;
#X connect 1 1 4 0;
#X connect 2 0 6 0;
#X connect 5 0 1 0;
#X connect 6 0 1 0;
#X connect 7 0 2 0;
#X connect 10 0 76 0;
#X connect 11 0 71 0;
#X connect 13 0 72 0;
#X connect 14 0 73 0;
#X connect 17 0 21 1;
#X connect 17 0 74 0;
#X connect 18 0 22 1;
#X connect 18 0 54 0;
#X connect 19 0 23 1;
#X connect 19 0 53 0;
#X connect 20 0 24 1;
#X connect 20 0 75 0;
#X connect 21 0 47 0;
#X connect 21 0 66 0;
#X connect 22 0 48 0;
#X connect 22 0 67 0;
#X connect 23 0 49 0;
#X connect 23 0 68 0;
#X connect 24 0 50 0;
#X connect 24 0 65 0;
#X connect 26 0 21 0;
#X connect 27 0 22 0;
#X connect 28 0 23 0;
#X connect 29 0 24 0;
#X connect 30 0 35 0;
#X connect 30 0 70 1;
#X connect 31 0 36 0;
#X connect 31 0 70 1;
#X connect 32 0 37 0;
#X connect 32 0 70 1;
#X connect 33 0 38 0;
#X connect 33 0 70 1;
#X connect 35 0 61 0;
#X connect 35 0 70 0;
#X connect 36 0 61 0;
#X connect 36 0 70 0;
#X connect 37 0 61 0;
#X connect 37 0 70 0;
#X connect 38 0 61 0;
#X connect 38 0 70 0;
#X connect 39 0 40 0;
#X connect 40 0 35 0;
#X connect 41 0 42 0;
#X connect 42 0 36 0;
#X connect 43 0 44 0;
#X connect 44 0 37 0;
#X connect 45 0 46 0;
#X connect 46 0 38 0;
#X connect 47 0 30 0;
#X connect 48 0 31 0;
#X connect 49 0 32 0;
#X connect 50 0 33 0;
#X connect 53 0 49 1;
#X connect 54 0 48 1;
#X connect 57 0 35 0;
#X connect 58 0 36 0;
#X connect 59 0 37 0;
#X connect 60 0 38 0;
#X connect 62 0 64 0;
#X connect 63 0 1 0;
#X connect 64 0 2 0;
#X connect 65 1 45 0;
#X connect 66 1 39 0;
#X connect 67 1 41 0;
#X connect 68 1 43 0;
#X connect 69 0 5 0;
#X connect 71 0 18 0;
#X connect 72 0 19 0;
#X connect 73 0 20 0;
#X connect 74 0 47 1;
#X connect 75 0 50 1;
#X connect 76 0 17 0;
