#N canvas 622 173 920 706 16;
#X floatatom 547 199 0 0 0 0 - - -;
#X obj 547 173 netsend -u;
#X floatatom 564 109 0 0 0 0 - - -;
#X text 622 25 UDP \, ascii;
#X obj 644 201 print backward;
#X msg 547 49 connect localhost 3333;
#X msg 564 136 send gate \$1;
#X obj 564 84 bng 15 250 50 0 empty empty empty 17 7 0 10 -262144 -1
-1;
#X floatatom 20 52 7 500 10000 2 - init_time base, f 7;
#X text 11 97 fractions;
#X obj 19 146 r base;
#X obj 120 146 r base;
#X text 14 121 1/2;
#X obj 19 174 * 2;
#X obj 237 148 r base;
#X obj 338 148 r base;
#X text 237 119 8/9;
#X obj 237 176 * 9;
#X text 338 120 4/7;
#X obj 338 176 * 7;
#X floatatom 19 202 5 0 0 0 - - -, f 5;
#X floatatom 120 202 5 0 0 0 - - -, f 5;
#X floatatom 237 204 5 0 0 0 - - -, f 5;
#X floatatom 338 204 5 0 0 0 - - -, f 5;
#X obj 28 279 metro;
#X obj 112 278 metro;
#X obj 207 278 metro;
#X obj 291 278 metro;
#X obj 160 51 tgl 25 0 start start_me start -60 12 0 10 -262144 -1
-1 1 1;
#X obj 28 246 r start;
#X obj 112 245 r start;
#X obj 207 244 r start;
#X obj 291 244 r start;
#X obj 28 531 bng 15 250 50 0 empty empty empty 17 7 0 10 -262144 -1
-1;
#X obj 114 530 bng 15 250 50 0 empty empty empty 17 7 0 10 -262144
-1 -1;
#X obj 207 531 bng 15 250 50 0 empty empty empty 17 7 0 10 -262144
-1 -1;
#X obj 292 531 bng 15 250 50 0 empty empty empty 17 7 0 10 -262144
-1 -1;
#X text 124 119 2/5;
#X obj 120 174 * 5;
#X msg 28 551 4;
#X msg 114 550 3;
#X msg 206 554 2;
#X msg 292 551 3;
#X obj 121 436 lister;
#X msg 121 464 set \$1;
#X obj 213 436 lister;
#X msg 213 464 set \$1;
#X obj 305 436 lister;
#X msg 305 464 set \$1;
#X obj 397 436 lister;
#X msg 397 464 set \$1;
#X obj 28 348 del;
#X obj 113 349 del;
#X obj 208 349 del;
#X obj 292 349 del;
#X obj 54 313 * 0.1;
#X text 330 346 delay to avoid;
#X text 331 364 unisons;
#X obj 318 314 * 0.3;
#X obj 234 314 * 0.3;
#X obj 138 313 * 0.2;
#X text 13 26 base pulse in ms;
#N canvas 283 186 653 293 init 0;
#X msg 121 106 set 2;
#X msg 206 113 set 3;
#X msg 274 114 set 4;
#X obj 31 200 send add1;
#X obj 310 199 send add4;
#X obj 218 199 send add3;
#X obj 125 199 send add2;
#X msg 34 105 set 1;
#X obj 99 15 loadbang;
#X obj 363 27 loadbang;
#X obj 562 133 s init_time;
#X msg 566 88 4500;
#X obj 465 104 del 1000;
#X obj 465 133 s connect;
#X obj 367 105 del 3000;
#X obj 367 134 s start_me;
#X connect 0 0 6 0;
#X connect 1 0 5 0;
#X connect 2 0 4 0;
#X connect 7 0 3 0;
#X connect 8 0 7 0;
#X connect 8 0 0 0;
#X connect 8 0 1 0;
#X connect 8 0 2 0;
#X connect 9 0 11 0;
#X connect 9 0 12 0;
#X connect 9 0 14 0;
#X connect 11 0 10 0;
#X connect 12 0 13 0;
#X connect 14 0 15 0;
#X restore 212 52 pd init;
#X obj 57 502 r add1;
#X obj 151 501 r add2;
#X obj 244 501 r add3;
#X obj 341 501 r add4;
#X obj 46 655 s gate_me;
#X obj 783 49 r gate_me;
#X msg 431 48 disconnect;
#X obj 783 78 - 1;
#X obj 346 403 counter 2;
#X obj 29 404 counter 5;
#X obj 144 404 counter 3;
#X obj 243 403 counter 3;
#X obj 547 3 r connect;
#N canvas 131 220 450 300 sound 0;
#X obj 90 220 dac~;
#X obj 98 78 noise~;
#X obj 98 163 *~;
#X obj 236 125 pack 0 50;
#X obj 236 170 line~;
#X obj 238 17 inlet;
#X obj 333 8 bng 15 250 50 0 empty empty empty 17 7 0 10 -262144 -1
-1;
#X msg 235 82 0.3;
#X msg 293 82 0;
#X obj 333 39 del 100;
#X msg 293 256 \; pd dsp 1;
#X obj 293 217 loadbang;
#X connect 1 0 2 0;
#X connect 2 0 0 0;
#X connect 2 0 0 1;
#X connect 3 0 4 0;
#X connect 4 0 2 1;
#X connect 5 0 7 0;
#X connect 5 0 9 0;
#X connect 6 0 7 0;
#X connect 6 0 9 0;
#X connect 7 0 3 0;
#X connect 8 0 3 0;
#X connect 9 0 8 0;
#X connect 11 0 10 0;
#X restore 171 656 pd sound;
#X connect 1 0 0 0;
#X connect 1 1 4 0;
#X connect 2 0 6 0;
#X connect 5 0 1 0;
#X connect 6 0 1 0;
#X connect 7 0 2 0;
#X connect 10 0 13 0;
#X connect 11 0 38 0;
#X connect 13 0 20 0;
#X connect 14 0 17 0;
#X connect 15 0 19 0;
#X connect 17 0 22 0;
#X connect 19 0 23 0;
#X connect 20 0 24 1;
#X connect 20 0 55 0;
#X connect 21 0 25 1;
#X connect 21 0 60 0;
#X connect 22 0 26 1;
#X connect 22 0 59 0;
#X connect 23 0 27 1;
#X connect 23 0 58 0;
#X connect 24 0 51 0;
#X connect 24 0 72 0;
#X connect 25 0 52 0;
#X connect 25 0 73 0;
#X connect 26 0 53 0;
#X connect 26 0 74 0;
#X connect 27 0 54 0;
#X connect 27 0 71 0;
#X connect 29 0 24 0;
#X connect 30 0 25 0;
#X connect 31 0 26 0;
#X connect 32 0 27 0;
#X connect 33 0 39 0;
#X connect 33 0 76 0;
#X connect 34 0 40 0;
#X connect 34 0 76 0;
#X connect 35 0 41 0;
#X connect 35 0 76 0;
#X connect 36 0 42 0;
#X connect 36 0 76 0;
#X connect 38 0 21 0;
#X connect 39 0 67 0;
#X connect 40 0 67 0;
#X connect 41 0 67 0;
#X connect 42 0 67 0;
#X connect 43 0 44 0;
#X connect 44 0 39 0;
#X connect 45 0 46 0;
#X connect 46 0 40 0;
#X connect 47 0 48 0;
#X connect 48 0 41 0;
#X connect 49 0 50 0;
#X connect 50 0 42 0;
#X connect 51 0 33 0;
#X connect 52 0 34 0;
#X connect 53 0 35 0;
#X connect 54 0 36 0;
#X connect 55 0 51 1;
#X connect 58 0 54 1;
#X connect 59 0 53 1;
#X connect 60 0 52 1;
#X connect 63 0 39 0;
#X connect 64 0 40 0;
#X connect 65 0 41 0;
#X connect 66 0 42 0;
#X connect 68 0 70 0;
#X connect 69 0 1 0;
#X connect 70 0 2 0;
#X connect 71 1 49 0;
#X connect 72 1 43 0;
#X connect 73 1 45 0;
#X connect 74 1 47 0;
#X connect 75 0 5 0;
