#N canvas 774 176 950 421 16;
#X msg 147 153 disconnect;
#X floatatom 150 303 0 0 0 0 - - -;
#X obj 150 277 netsend -u;
#X text 222 48 UDP \, ascii;
#X obj 199 308 print backward;
#X msg 147 72 connect localhost 3333;
#X msg 167 240 send gate \$1;
#X obj 345 155 bng 15 250 50 0 empty empty empty 17 7 0 10 -262144
-1 -1;
#X msg 293 195 2;
#X msg 385 192 4;
#X msg 338 195 3;
#X msg 433 196 5;
#X msg 480 193 6;
#X msg 243 193 1;
#X msg 183 194 0;
#X connect 0 0 2 0;
#X connect 2 0 1 0;
#X connect 2 1 4 0;
#X connect 5 0 2 0;
#X connect 6 0 2 0;
#X connect 7 0 8 0;
#X connect 7 0 10 0;
#X connect 8 0 6 0;
#X connect 9 0 6 0;
#X connect 10 0 6 0;
#X connect 11 0 6 0;
#X connect 12 0 6 0;
#X connect 13 0 6 0;
#X connect 14 0 6 0;
